<svg width="151" height="61" viewBox="0 0 151 61" fill="none" xmlns="http://www.w3.org/2000/svg">
<path d="M0.574219 0.277344V4.37842H29.743V0.277344H0.574219ZM33.8757 0.277344V4.37842H75.4425C75.4425 4.37842 71.1966 0.277344 65.5732 0.277344H33.8757ZM83.5967 0.277344V4.37842H108.744L107.251 0.277344H83.5967ZM126.773 0.277344L125.281 4.37842H150.2V0.277344H126.773ZM0.574219 8.25295V12.354H29.743V8.25295H0.574219ZM33.8757 8.25881V12.354H80.2659C80.2659 12.354 79.7242 9.19773 78.7791 8.25881H33.8757ZM83.5967 8.25881V12.354H111.501L110.12 8.25881H83.5967ZM123.788 8.25881L122.406 12.354H150.2V8.25881H123.788ZM8.95666 16.2286V20.3349H21.5889V16.2286H8.95666ZM42.2581 16.2286V20.3349H54.8903V16.2286H42.2581ZM67.1771 16.2286V20.3349H79.8093C79.8093 20.3349 80.6113 18.1661 80.6113 16.2283H67.1771V16.2286ZM91.9791 16.2286V20.3349H114.375L112.883 16.2283H91.9791V16.2286ZM121.037 16.2286L119.538 20.3352H142.045V16.2286H121.037ZM8.95666 24.21V28.3105H21.5889V24.21H8.95666ZM42.2581 24.21V28.3105H74.5235C74.5235 28.3105 77.2226 26.2061 78.0825 24.2094H42.2581V24.21ZM91.9791 24.21V28.3105H104.611V26.0276L105.413 28.3105H128.553L129.413 26.0276V28.3105H142.045V24.21H118.332L117.074 27.6839L115.809 24.21H91.9791ZM8.95666 32.185V36.2861H21.5889V32.185H8.95666ZM42.2581 32.185V36.2861H78.0825C77.2223 34.2959 74.5235 32.185 74.5235 32.185H42.2581ZM91.9791 32.185V36.2861H104.611V32.185H91.9791ZM106.906 32.185L108.434 36.2861H125.784L127.236 32.185H106.906ZM129.413 32.185V36.2861H142.045V32.185H129.413ZM8.95666 40.1607V44.2617H21.5889V40.1607H8.95666ZM42.2581 40.1607V44.2617H54.8903V40.1607H42.2581ZM67.1771 40.1607V44.2617H80.6113C80.6113 42.3262 79.8093 40.1607 79.8093 40.1607H67.1771ZM91.9791 40.1607V44.2617H104.611V40.1607H91.9791ZM109.774 40.1607L111.255 44.2617H122.886L124.379 40.1607H109.774ZM129.413 40.1607V44.2617H142.045V40.1607H129.413ZM0.802511 48.1366V52.2432H29.9713V48.1363H0.802511V48.1366ZM33.8757 48.1366V52.2432H78.7791C79.7242 51.3028 80.2659 48.1363 80.2659 48.1363H33.8757V48.1366ZM83.825 48.1366V52.2432H104.611V48.1363H83.825V48.1366ZM112.648 48.1366L114.17 52.2432H120.088L121.517 48.1363H112.648V48.1366ZM129.413 48.1366V52.2432H150.428V48.1363H129.413V48.1366ZM0.802511 56.1177V60.2188H29.9713V56.1177H0.802511ZM33.8757 56.1177V60.2127H65.5732C71.1966 60.2127 75.4425 56.1174 75.4425 56.1174H33.8757V56.1177ZM83.825 56.1177V60.2188H104.611V56.1177H83.825ZM115.534 56.1177L116.998 60.2068L117.249 60.2127L118.736 56.1174H115.534V56.1177ZM129.413 56.1177V60.2188H150.428V56.1177H129.413Z" fill="#1F70C1"/>
</svg>
