<svg width="274" height="164" viewBox="0 0 274 164" fill="none" xmlns="http://www.w3.org/2000/svg">
<rect x="1.22656" y="0.777344" width="272" height="162" fill="white"/>
<path d="M96.4506 48.4213C94.7972 48.4213 93.4906 47.8987 92.5306 46.8533C91.5812 45.808 91.1066 44.4 91.1066 42.6293V42.5013C91.1066 40.8053 91.6132 39.408 92.6266 38.3093C93.6399 37.2107 94.9252 36.6613 96.4826 36.6613C97.7306 36.6613 98.7866 36.9867 99.6506 37.6373C100.515 38.288 101.005 39.2107 101.123 40.4053H99.7466C99.4586 38.6453 98.3759 37.7653 96.4986 37.7653C95.3146 37.7653 94.3599 38.1973 93.6346 39.0613C92.9092 39.9147 92.5466 41.056 92.5466 42.4853V42.6133C92.5466 44.0747 92.8932 45.2213 93.5866 46.0533C94.2906 46.8747 95.2559 47.2853 96.4826 47.2853C97.4319 47.2853 98.2106 47.0507 98.8186 46.5813C99.4266 46.1013 99.7999 45.4027 99.9386 44.4853H101.235C101.043 45.776 100.525 46.7573 99.6826 47.4293C98.8399 48.0907 97.7626 48.4213 96.4506 48.4213ZM103.39 48.2773V35.9093H104.734V48.2773H103.39ZM107.584 48.2773V39.9093H108.912V48.2773H107.584ZM108.832 37.9093C108.661 38.08 108.458 38.1653 108.224 38.1653C107.989 38.1653 107.781 38.08 107.6 37.9093C107.429 37.7387 107.344 37.5307 107.344 37.2853C107.344 37.04 107.429 36.832 107.6 36.6613C107.781 36.4907 107.989 36.4053 108.224 36.4053C108.458 36.4053 108.661 36.4907 108.832 36.6613C109.013 36.832 109.104 37.04 109.104 37.2853C109.104 37.5307 109.013 37.7387 108.832 37.9093ZM115.154 48.4213C113.959 48.4213 112.983 48.0373 112.226 47.2693C111.479 46.4907 111.106 45.4613 111.106 44.1813V44.0533C111.106 42.7947 111.469 41.7653 112.194 40.9653C112.93 40.1653 113.874 39.7653 115.026 39.7653C116.093 39.7653 116.983 40.112 117.698 40.8053C118.423 41.488 118.786 42.528 118.786 43.9253V44.3573H112.482C112.514 45.3173 112.754 46.0533 113.202 46.5653C113.661 47.0667 114.317 47.3173 115.17 47.3173C116.482 47.3173 117.223 46.832 117.394 45.8613H118.722C118.583 46.6827 118.194 47.3173 117.554 47.7653C116.914 48.2027 116.114 48.4213 115.154 48.4213ZM112.53 43.2853H117.426C117.309 41.6747 116.509 40.8693 115.026 40.8693C114.354 40.8693 113.799 41.088 113.362 41.5253C112.925 41.952 112.647 42.5387 112.53 43.2853ZM120.924 48.2773V39.9093H122.252V41.2373C122.454 40.8107 122.79 40.4587 123.26 40.1813C123.729 39.904 124.289 39.7653 124.94 39.7653C125.857 39.7653 126.577 40.0373 127.1 40.5813C127.622 41.1253 127.884 41.9787 127.884 43.1413V48.2773H126.556V43.0453C126.556 42.3093 126.396 41.7707 126.076 41.4293C125.756 41.088 125.26 40.9173 124.588 40.9173C123.937 40.9173 123.382 41.12 122.924 41.5253C122.476 41.9307 122.252 42.4907 122.252 43.2053V48.2773H120.924ZM133.13 48.3893C132.394 48.3893 131.834 48.192 131.45 47.7973C131.066 47.4027 130.874 46.864 130.874 46.1813V41.0293H129.674V39.9093H130.874V38.0053H132.202V39.9093H134.154V41.0293H132.202V46.0533C132.202 46.864 132.549 47.2693 133.242 47.2693C133.626 47.2693 133.968 47.2107 134.266 47.0933V48.2133C133.936 48.3307 133.557 48.3893 133.13 48.3893ZM140.804 48.2773V36.8373H142.612L148.18 46.2933V36.8373H149.508V48.2773H147.908L142.132 38.4693V48.2773H140.804ZM154.482 48.4213C153.661 48.4213 152.989 48.2187 152.466 47.8133C151.954 47.3973 151.698 46.7787 151.698 45.9573C151.698 45.0613 152.093 44.4053 152.882 43.9893C153.682 43.5733 154.685 43.3653 155.89 43.3653H157.09V42.7573C157.09 42.0853 156.952 41.6053 156.674 41.3173C156.397 41.0187 155.938 40.8693 155.298 40.8693C154.146 40.8693 153.506 41.3707 153.378 42.3733H152.05C152.136 41.4773 152.488 40.8213 153.106 40.4053C153.725 39.9787 154.477 39.7653 155.362 39.7653C157.4 39.7653 158.418 40.7627 158.418 42.7573V48.2773H157.09V47.2213C156.45 48.0213 155.581 48.4213 154.482 48.4213ZM154.61 47.3653C155.336 47.3653 155.928 47.1893 156.386 46.8373C156.856 46.4747 157.09 45.9787 157.09 45.3493V44.3093H155.938C153.997 44.3093 153.026 44.8587 153.026 45.9573C153.026 46.896 153.554 47.3653 154.61 47.3653ZM161.127 48.2773V39.9093H162.455V41.1893C162.657 40.7733 162.977 40.432 163.415 40.1653C163.863 39.8987 164.375 39.7653 164.951 39.7653C166.177 39.7653 166.993 40.288 167.399 41.3333C167.665 40.8213 168.065 40.432 168.599 40.1653C169.143 39.8987 169.697 39.7653 170.263 39.7653C171.084 39.7653 171.756 40.0373 172.279 40.5813C172.812 41.1147 173.079 41.952 173.079 43.0933V48.2773H171.751V42.9973C171.751 41.6107 171.159 40.9173 169.975 40.9173C169.377 40.9173 168.86 41.1147 168.423 41.5093C167.985 41.904 167.767 42.4533 167.767 43.1573V48.2773H166.439V42.9973C166.439 41.6107 165.847 40.9173 164.663 40.9173C164.065 40.9173 163.548 41.1147 163.111 41.5093C162.673 41.904 162.455 42.4533 162.455 43.1573V48.2773H161.127ZM179.213 48.4213C178.019 48.4213 177.043 48.0373 176.285 47.2693C175.539 46.4907 175.165 45.4613 175.165 44.1813V44.0533C175.165 42.7947 175.528 41.7653 176.253 40.9653C176.989 40.1653 177.933 39.7653 179.085 39.7653C180.152 39.7653 181.043 40.112 181.757 40.8053C182.483 41.488 182.845 42.528 182.845 43.9253V44.3573H176.541C176.573 45.3173 176.813 46.0533 177.261 46.5653C177.72 47.0667 178.376 47.3173 179.229 47.3173C180.541 47.3173 181.283 46.832 181.453 45.8613H182.781C182.643 46.6827 182.253 47.3173 181.613 47.7653C180.973 48.2027 180.173 48.4213 179.213 48.4213ZM176.589 43.2853H181.485C181.368 41.6747 180.568 40.8693 179.085 40.8693C178.413 40.8693 177.859 41.088 177.421 41.5253C176.984 41.952 176.707 42.5387 176.589 43.2853Z" fill="#374754"/>
<g clip-path="url(#clip0_66_4714)">
<path d="M227.716 107.779L233.07 111.33C231.332 113.877 227.176 118.245 219.99 118.245C211.067 118.245 204.422 111.377 204.422 102.64C204.422 93.3427 211.138 87.0352 219.239 87.0352C227.387 87.0352 231.379 93.4825 232.671 96.9633L233.375 98.7389L212.382 107.382C213.979 110.513 216.468 112.101 219.99 112.101C223.513 112.101 225.955 110.373 227.716 107.779ZM211.255 102.15L225.274 96.3562C224.499 94.4174 222.198 93.0393 219.45 93.0393C215.952 93.0393 211.091 96.1229 211.255 102.15Z" fill="#FF302F"/>
<path d="M194.301 71.1266H201.063V116.82H194.301V71.1262V71.1266Z" fill="#20B15A"/>
<path d="M183.639 88.2496H190.167V116.002C190.167 127.519 183.334 132.261 175.256 132.261C167.648 132.261 163.069 127.169 161.354 123.034L167.342 120.557C168.422 123.104 171.029 126.117 175.256 126.117C180.445 126.117 183.639 122.917 183.639 116.937V114.694H183.404C181.854 116.563 178.896 118.245 175.138 118.245C167.295 118.245 160.109 111.447 160.109 102.687C160.109 93.8795 167.295 87.0117 175.138 87.0117C178.872 87.0117 181.854 88.6703 183.404 90.4925H183.639V88.25V88.2496ZM184.108 102.687C184.108 97.1735 180.422 93.1553 175.725 93.1553C170.982 93.1553 166.99 97.1735 166.99 102.687C166.99 108.129 170.982 112.077 175.725 112.077C180.422 112.101 184.109 108.129 184.109 102.687H184.108Z" fill="#3686F7"/>
<path d="M122.986 102.57C122.986 111.564 115.941 118.175 107.299 118.175C98.6582 118.175 91.6133 111.541 91.6133 102.57C91.6133 93.5293 98.6582 86.9417 107.299 86.9417C115.941 86.9417 122.986 93.5293 122.986 102.57ZM116.129 102.57C116.129 96.9635 112.043 93.1085 107.299 93.1085C102.556 93.1085 98.4701 96.9635 98.4701 102.57C98.4701 108.13 102.556 112.031 107.299 112.031C112.043 112.031 116.129 108.13 116.129 102.57Z" fill="#FF302F"/>
<path d="M157.243 102.64C157.243 111.634 150.199 118.245 141.557 118.245C132.916 118.245 125.871 111.634 125.871 102.64C125.871 93.5995 132.916 87.0352 141.557 87.0352C150.199 87.0352 157.243 93.5763 157.243 102.64ZM150.363 102.64C150.363 97.0338 146.277 93.1788 141.533 93.1788C136.79 93.1788 132.704 97.0338 132.704 102.64C132.704 108.2 136.79 112.101 141.533 112.101C146.3 112.101 150.363 108.177 150.363 102.64Z" fill="#FFBA40"/>
<path d="M65.8287 111.4C55.9894 111.4 48.2875 103.504 48.2875 93.716C48.2875 83.9282 55.9894 76.0322 65.8287 76.0322C71.1358 76.0322 75.0101 78.1112 77.875 80.7744L82.5952 76.079C78.6032 72.2713 73.2727 69.374 65.8287 69.374C52.35 69.3744 41.0078 80.3075 41.0078 93.716C41.0078 107.125 52.35 118.058 65.8287 118.058C73.1084 118.058 78.6032 115.675 82.9005 111.237C87.315 106.845 88.6769 100.678 88.6769 95.6784C88.6769 94.1132 88.4892 92.5014 88.2777 91.31H65.8287V97.8043H81.8202C81.3505 101.869 80.059 104.649 78.1569 106.541C75.8556 108.854 72.2161 111.4 65.8287 111.4Z" fill="#3686F7"/>
</g>
<rect x="1.22656" y="0.777344" width="272" height="162" stroke="#D8D8D8"/>
<defs>
<clipPath id="clip0_66_4714">
<rect width="193" height="63" fill="white" transform="translate(40.7266 69.2773)"/>
</clipPath>
</defs>
</svg>
